<mxfile host="app.diagrams.net" agent="Mozilla/5.0 (Windows NT 10.0; Win64; x64) AppleWebKit/537.36 (KHTML, like Gecko) Chrome/136.0.0.0 Safari/537.36 Edg/136.0.0.0" version="27.0.1">
  <diagram name="Page-1" id="A8Atv8mnjHZfkSWbboiL">
    <mxGraphModel dx="2058" dy="1146" grid="1" gridSize="10" guides="1" tooltips="1" connect="1" arrows="1" fold="1" page="1" pageScale="1" pageWidth="850" pageHeight="1100" math="0" shadow="0">
      <root>
        <mxCell id="0" />
        <mxCell id="1" parent="0" />
        <mxCell id="zZ_3lTDn0HgkLyz5KUce-1" value="Login" style="rounded=0;whiteSpace=wrap;html=1;" parent="1" vertex="1">
          <mxGeometry x="150" y="70" width="120" height="130" as="geometry" />
        </mxCell>
        <mxCell id="zZ_3lTDn0HgkLyz5KUce-2" value="Home" style="rounded=0;whiteSpace=wrap;html=1;" parent="1" vertex="1">
          <mxGeometry x="150" y="220" width="120" height="130" as="geometry" />
        </mxCell>
        <mxCell id="zZ_3lTDn0HgkLyz5KUce-3" value="Order list" style="rounded=0;whiteSpace=wrap;html=1;" parent="1" vertex="1">
          <mxGeometry x="450" y="370" width="120" height="130" as="geometry" />
        </mxCell>
        <mxCell id="zZ_3lTDn0HgkLyz5KUce-4" value="User List" style="rounded=0;whiteSpace=wrap;html=1;fillColor=#d5e8d4;strokeColor=#82b366;" parent="1" vertex="1">
          <mxGeometry x="150" y="370" width="120" height="130" as="geometry" />
        </mxCell>
        <mxCell id="zZ_3lTDn0HgkLyz5KUce-5" value="Customer List" style="rounded=0;whiteSpace=wrap;html=1;" parent="1" vertex="1">
          <mxGeometry x="300" y="370" width="120" height="130" as="geometry" />
        </mxCell>
        <mxCell id="zZ_3lTDn0HgkLyz5KUce-6" value="Admin" style="rounded=0;whiteSpace=wrap;html=1;fillColor=#d5e8d4;strokeColor=#82b366;" parent="1" vertex="1">
          <mxGeometry x="540" y="70" width="120" height="60" as="geometry" />
        </mxCell>
        <mxCell id="zZ_3lTDn0HgkLyz5KUce-7" value="Owner" style="rounded=0;whiteSpace=wrap;html=1;fillColor=#dae8fc;strokeColor=#6c8ebf;" parent="1" vertex="1">
          <mxGeometry x="540" y="150" width="120" height="60" as="geometry" />
        </mxCell>
        <mxCell id="zZ_3lTDn0HgkLyz5KUce-8" value="User Edit" style="rounded=0;whiteSpace=wrap;html=1;fillColor=#d5e8d4;strokeColor=#82b366;" parent="1" vertex="1">
          <mxGeometry x="150" y="520" width="120" height="130" as="geometry" />
        </mxCell>
        <mxCell id="zZ_3lTDn0HgkLyz5KUce-9" value="Customer Edit" style="rounded=0;whiteSpace=wrap;html=1;" parent="1" vertex="1">
          <mxGeometry x="300" y="520" width="120" height="130" as="geometry" />
        </mxCell>
        <mxCell id="zZ_3lTDn0HgkLyz5KUce-10" value="Order Edit" style="rounded=0;whiteSpace=wrap;html=1;" parent="1" vertex="1">
          <mxGeometry x="450" y="520" width="120" height="130" as="geometry" />
        </mxCell>
        <mxCell id="zZ_3lTDn0HgkLyz5KUce-12" value="Report List" style="rounded=0;whiteSpace=wrap;html=1;" parent="1" vertex="1">
          <mxGeometry x="590" y="370" width="120" height="130" as="geometry" />
        </mxCell>
        <mxCell id="ZEe0Y0zUbaUnlnPjk3-d-1" value="Migration Tool" style="rounded=0;whiteSpace=wrap;html=1;" parent="1" vertex="1">
          <mxGeometry x="730" y="370" width="120" height="130" as="geometry" />
        </mxCell>
        <mxCell id="I4R1pbfz73XZxLGyVu1A-1" value="Unauthorized" style="rounded=0;whiteSpace=wrap;html=1;" vertex="1" parent="1">
          <mxGeometry x="150" y="810" width="120" height="130" as="geometry" />
        </mxCell>
      </root>
    </mxGraphModel>
  </diagram>
</mxfile>
